<svg width="512" height="512" xmlns="http://www.w3.org/2000/svg">
  <g fill="none" fill-rule="evenodd">
    <path fill="#003F7A" d="M0 0h512v512H0z"/>
    <path d="M330.8 330.7a27.6 27.6 0 1039 39.1 27.6 27.6 0 00-39-39" fill="#FBEC95"/>
    <path d="M236.2 236.2a27.6 27.6 0 1039.1 39.1 27.6 27.6 0 00-39-39" fill="#FBEC95"/>
    <path d="M189.4 189.4a27.6 27.6 0 1039.1 39.1 27.6 27.6 0 00-39-39" fill="#FBEC95"/>
    <path d="M142.2 142.2a27.6 27.6 0 1039 39 27.6 27.6 0 00-39-39" fill="#FBEC95"/>
    <path d="M377.6 283.5a27.6 27.6 0 1039 39 27.6 27.6 0 00-39-39" fill="#FBEC95"/>
    <path d="M189.4 95.3a27.6 27.6 0 1039.1 39.1 27.6 27.6 0 00-39-39" fill="#FBEC95"/>
    <path d="M424.8 236.2a27.6 27.6 0 1039.1 39.1 27.6 27.6 0 00-39-39" fill="#FBEC95"/>
    <path d="M377.6 189.4a27.6 27.6 0 1039 39.1 27.6 27.6 0 00-39-39" fill="#FBEC95"/>
    <path d="M330.8 142.2a27.6 27.6 0 1039 39 27.6 27.6 0 00-39-39" fill="#FBEC95"/>
    <path d="M283.5 95.3a27.6 27.6 0 1039 39.1 27.6 27.6 0 00-39-39" fill="#FBEC95"/>
    <path d="M236.2 48a27.6 27.6 0 1039.1 39.2 27.6 27.6 0 00-39-39.1" fill="#FBEC95"/>
    <path d="M283.5 377.6a27.6 27.6 0 1039 39 27.6 27.6 0 00-39-39" fill="#FBEC95"/>
    <path d="M95.3 189.4a27.6 27.6 0 1039.1 39.1 27.6 27.6 0 00-39-39" fill="#FBEC95"/>
    <path d="M236.2 424.8a27.6 27.6 0 1039.1 39.1 27.6 27.6 0 00-39-39" fill="#FBEC95"/>
    <path d="M189.4 377.6a27.6 27.6 0 1039.1 39 27.6 27.6 0 00-39-39" fill="#FBEC95"/>
    <path d="M142.2 330.7a27.6 27.6 0 1039 39.1 27.6 27.6 0 00-39-39" fill="#FBEC95"/>
    <path d="M95.3 283.5a27.6 27.6 0 1039.1 39 27.6 27.6 0 00-39-39" fill="#FBEC95"/>
    <path d="M48 236.2a27.6 27.6 0 1039.2 39.1 27.6 27.6 0 00-39.1-39" fill="#FBEC95"/>
    <path d="M283.5 283.5a27.6 27.6 0 1039 39 27.6 27.6 0 00-39-39" fill="#FDC300"/>
    <path d="M330.8 236.2a27.6 27.6 0 1039 39.1 27.6 27.6 0 00-39-39" fill="#FDC300"/>
    <path d="M283.5 189.4a27.6 27.6 0 1039 39.1 27.6 27.6 0 00-39-39" fill="#FDC300"/>
    <path d="M236.2 142.2a27.6 27.6 0 1039.1 39 27.6 27.6 0 00-39-39" fill="#FDC300"/>
    <path d="M236.2 330.7a27.6 27.6 0 1039.1 39.1 27.6 27.6 0 00-39-39" fill="#FDC300"/>
    <path d="M189.4 283.5a27.6 27.6 0 1039.1 39 27.6 27.6 0 00-39-39" fill="#FDC300"/>
    <path d="M142.2 236.2a27.6 27.6 0 1039 39.1 27.6 27.6 0 00-39-39" fill="#FDC300"/>
  </g>
</svg>
